HIERARCHY
ROOT Hips
{
	OFFSET 0.00000 0.00000 0.00000
	CHANNELS 6 Xposition Yposition Zposition Zrotation Yrotation Xrotation 
	JOINT LHipJoint
	{
		OFFSET 0 0 0
		CHANNELS 3 Zrotation Yrotation Xrotation
		JOINT LeftUpLeg
		{
			OFFSET 1.56857 -1.73443 1.15205
			CHANNELS 3 Zrotation Yrotation Xrotation
			JOINT LeftLeg
			{
				OFFSET 2.39362 -6.57643 0.00000
				CHANNELS 3 Zrotation Yrotation Xrotation
				JOINT LeftFoot
				{
					OFFSET 2.50952 -6.89485 0.00000
					CHANNELS 3 Zrotation Yrotation Xrotation
					JOINT LeftToeBase
					{
						OFFSET 0.17171 -0.47178 1.88682
						CHANNELS 3 Zrotation Yrotation Xrotation
						End Site
						{
							OFFSET 0.00000 -0.00000 0.98146
						}
					}
				}
			}
		}
	}
	JOINT RHipJoint
	{
		OFFSET 0 0 0
		CHANNELS 3 Zrotation Yrotation Xrotation
		JOINT RightUpLeg
		{
			OFFSET -1.28153 -1.73443 1.15205
			CHANNELS 3 Zrotation Yrotation Xrotation
			JOINT RightLeg
			{
				OFFSET -2.26861 -6.23296 0.00000
				CHANNELS 3 Zrotation Yrotation Xrotation
				JOINT RightFoot
				{
					OFFSET -2.54143 -6.98254 0.00000
					CHANNELS 3 Zrotation Yrotation Xrotation
					JOINT RightToeBase
					{
						OFFSET -0.23309 -0.64041 1.93119
						CHANNELS 3 Zrotation Yrotation Xrotation
						End Site
						{
							OFFSET -0.00000 -0.00000 1.02013
						}
					}
				}
			}
		}
	}
	JOINT LowerBack
	{
		OFFSET 0 0 0
		CHANNELS 3 Zrotation Yrotation Xrotation
		JOINT Spine
		{
			OFFSET -0.07096 2.10460 -0.27878
			CHANNELS 3 Zrotation Yrotation Xrotation
			JOINT Spine1
			{
				OFFSET -0.00826 2.13662 -0.08279
				CHANNELS 3 Zrotation Yrotation Xrotation
				JOINT Neck
				{
					OFFSET 0 0 0
					CHANNELS 3 Zrotation Yrotation Xrotation
					JOINT Neck1
					{
						OFFSET 0.03239 1.77799 0.24435
						CHANNELS 3 Zrotation Yrotation Xrotation
						JOINT Head
						{
							OFFSET 0.01026 1.74194 -0.49664
							CHANNELS 3 Zrotation Yrotation Xrotation
							End Site
							{
								OFFSET 0.00170 1.83057 -0.19653
							}
						}
					}
				}
				JOINT LeftShoulder
				{
					OFFSET 0 0 0
					CHANNELS 3 Zrotation Yrotation Xrotation
					JOINT LeftArm
					{
						OFFSET 3.19178 1.35907 -0.31412
						CHANNELS 3 Zrotation Yrotation Xrotation
						JOINT LeftForeArm
						{
							OFFSET 4.85247 -0.00000 -0.00000
							CHANNELS 3 Zrotation Yrotation Xrotation
							JOINT LeftHand
							{
								OFFSET 3.55584 -0.00000 0.00000
								CHANNELS 3 Zrotation Yrotation Xrotation
								JOINT LeftFingerBase
								{
									OFFSET 0 0 0
									CHANNELS 3 Zrotation Yrotation Xrotation
									JOINT LeftHandIndex1
									{
										OFFSET 0.69320 -0.00000 0.00000
										CHANNELS 3 Zrotation Yrotation Xrotation
										End Site
										{
											OFFSET 0.55888 -0.00000 0.00000
										}
									}
								}
								JOINT LThumb
								{
									OFFSET 0 0 0
									CHANNELS 3 Zrotation Yrotation Xrotation
									End Site
									{
										OFFSET 0.56741 -0.00000 0.56741
									}
								}
							}
						}
					}
				}
				JOINT RightShoulder
				{
					OFFSET 0 0 0
					CHANNELS 3 Zrotation Yrotation Xrotation
					JOINT RightArm
					{
						OFFSET -3.28999 1.24191 -0.26899
						CHANNELS 3 Zrotation Yrotation Xrotation
						JOINT RightForeArm
						{
							OFFSET -4.64462 -0.00000 0.00000
							CHANNELS 3 Zrotation Yrotation Xrotation
							JOINT RightHand
							{
								OFFSET -3.40703 -0.00000 0.00000
								CHANNELS 3 Zrotation Yrotation Xrotation
								JOINT RightFingerBase
								{
									OFFSET 0 0 0
									CHANNELS 3 Zrotation Yrotation Xrotation
									JOINT RightHandIndex1
									{
										OFFSET -0.61958 -0.00000 0.00000
										CHANNELS 3 Zrotation Yrotation Xrotation
										End Site
										{
											OFFSET -0.49952 -0.00000 0.00000
										}
									}
								}
								JOINT RThumb
								{
									OFFSET 0 0 0
									CHANNELS 3 Zrotation Yrotation Xrotation
									End Site
									{
										OFFSET -0.50715 -0.00000 0.50715
									}
								}
							}
						}
					}
				}
			}
		}
	}
}
MOTION
Frames: 15
Frame Time: .0083333
-29.9938 16.9234 1.1544 0 0 0 0 0 0 -21 0 0 0 0 0 0 0 0 0 0 0 0 0 0 21 0 0 0 0 0 0 0 0 0 0 0 0 0 0 0 0 0 0 0 0 0 0 -16 0 0 21 0 0 11 0 0 0 -8 0 0 0 0 0 0 0 0 0 0 0 0 0 0 0 0 0 0 0 0 8 0 0 0 0 0 0 0 0 0 0 0 0 0 0 0 0 0
-29.9938 16.9234 1.1544 62.2781 84.6455 61.5983 0.0000 0.0000 0.0000 -19.0588 4.3253 10.6429 0.0199 0.9100 2.5012 0.9641 1.4845 -19.1417 0.5437 -4.7240 -13.1231 0.0000 0.0000 0.0000 8.5633 -5.5328 7.0600 -0.1916 -2.8193 7.7759 -1.4790 3.0629 -22.2014 -0.1610 -2.5855 7.1267 -7.7400 2.3891 3.9520 -1.2940 2.9120 1.3025 2.8428 1.4796 -1.1820 3.4025 1.4137 -18.1238 -0.6810 1.5115 25.7185 -0.5713 1.0676 11.4074 0.0000 -0.0000 0.0000 -84.5075 1.4012 44.7867 13.9189 -22.6186 -2.7968 -0.0000 -0.0000 12.0477 15.5243 -23.0355 -6.2035 -7.1250 0.0000 -0.0000 -8.4223 6.3820 7.5175 0.0000 -0.0000 0.0000 87.2401 -9.1054 34.4636 -19.0197 29.4431 -5.0405 0.0000 0.0000 0.6411 -9.1888 -31.5360 4.8362 7.1250 -0.0000 -0.0000 25.9687 -59.9241 -9.8560
-29.9670 16.9158 1.1661 64.1244 84.5273 63.5236 0.0000 0.0000 0.0000 -19.2899 4.2154 10.7008 0.0197 0.9066 2.4919 0.9790 1.4077 -19.2513 0.5145 -4.5976 -12.7642 0.0000 0.0000 0.0000 8.3853 -5.5964 7.0741 -0.1933 -2.8314 7.8098 -1.5049 3.2115 -22.3732 -0.1601 -2.5782 7.1066 -7.8925 2.2687 3.8426 -1.3734 2.7635 1.3809 2.8610 1.3997 -1.0261 3.3896 1.3541 -18.2012 -0.5881 1.3906 25.5971 -0.5535 1.0190 11.3731 -0.0000 0.0000 0.0000 -84.2790 1.2821 44.8776 14.1427 -22.9384 -2.8835 -0.0000 -0.0000 11.9351 14.8764 -22.6504 -5.8410 -7.1250 0.0000 -0.0000 -8.8061 6.8550 7.7869 -0.0000 0.0000 0.0000 87.2227 -9.1741 34.4671 -19.1026 29.5459 -5.0813 0.0000 0.0000 0.6607 -9.3642 -31.1341 4.8735 7.1250 -0.0000 -0.0000 25.4453 -59.6069 -9.4465
-29.9338 16.9101 1.1725 66.8568 84.3988 66.3178 0.0000 0.0000 0.0000 -19.6308 4.0402 10.8880 0.0174 0.8508 2.3384 0.9866 1.3784 -19.3109 0.5400 -4.7083 -13.0783 0.0000 0.0000 0.0000 8.0331 -6.0149 7.0939 -0.1907 -2.8126 7.7574 -1.5273 3.4033 -22.5105 -0.1293 -2.3177 6.3845 -8.0119 2.1166 3.8546 -1.4858 2.5584 1.3926 2.8229 1.2975 -0.9980 3.4460 1.3588 -18.3060 -0.4881 1.3384 25.5177 -0.5341 1.0100 11.3627 -0.0000 0.0000 0.0000 -83.9473 1.2342 45.2904 14.3273 -23.2006 -2.9558 -0.0000 -0.0000 11.6788 14.1203 -23.1193 -5.6410 -7.1250 0.0000 -0.0000 -9.3007 6.4789 8.3047 -0.0000 0.0000 0.0000 87.2148 -9.2694 34.5474 -19.1346 29.5856 -5.0971 0.0000 0.0000 0.7638 -9.4281 -31.4057 4.9454 7.1250 -0.0000 -0.0000 25.6112 -59.8638 -9.6720
-29.9003 16.9022 1.1827 65.2959 84.3596 64.8673 0.0000 0.0000 0.0000 -19.5775 4.1624 10.9898 0.0149 0.7883 2.1665 0.9980 1.3579 -19.4109 0.5190 -4.6172 -12.8198 0.0000 0.0000 0.0000 8.0094 -6.2475 6.9904 -0.1921 -2.8230 7.7863 -1.5469 3.7098 -22.6058 -0.1038 -2.0775 5.7198 -7.9276 2.0839 3.8677 -1.5114 2.5146 1.3663 2.7512 1.2771 -1.0234 3.4123 1.3395 -18.4264 -0.3256 1.2641 25.4881 -0.4797 0.9916 11.3725 0.0000 -0.0000 0.0000 -83.6472 1.0860 45.7578 14.3525 -23.2364 -2.9658 -0.0000 -0.0000 11.6706 15.3474 -23.4145 -6.2243 -7.1250 0.0000 -0.0000 -8.5538 6.0226 7.6974 0.0000 -0.0000 0.0000 87.1125 -9.4001 34.6706 -19.2209 29.6923 -5.1398 0.0000 0.0000 0.7185 -9.3031 -31.9881 4.9596 7.1250 -0.0000 -0.0000 26.2493 -60.3515 -10.2416
-29.8641 16.8954 1.1925 65.6938 84.1677 65.3282 0.0000 0.0000 0.0000 -19.8461 4.1363 11.1266 0.0140 0.7635 2.0984 1.0282 1.3632 -19.6957 0.4953 -4.5121 -12.5219 0.0000 0.0000 0.0000 7.7116 -6.5037 6.9609 -0.1954 -2.8465 7.8517 -1.5818 4.0510 -22.8141 -0.0850 -1.8802 5.1747 -8.2151 2.0638 3.8269 -1.4600 2.4858 1.4203 2.9681 1.2591 -0.9548 3.1550 1.2722 -18.5298 -0.1130 1.1764 25.3967 -0.3717 0.9503 11.3529 0.0000 -0.0000 0.0000 -83.6586 0.8236 46.4626 14.8233 -23.8994 -3.1540 -0.0000 -0.0000 10.3382 12.6463 -21.7325 -4.7492 -7.1250 0.0000 -0.0000 -10.1688 8.0424 8.7894 0.0000 -0.0000 0.0000 86.7800 -9.5588 34.7687 -19.4255 29.9440 -5.2416 0.0000 0.0000 0.4378 -9.2464 -32.2402 4.9635 7.1250 -0.0000 -0.0000 26.5346 -60.5609 -10.4957
-29.8336 16.8946 1.2072 64.4636 84.4707 64.2488 0.0000 0.0000 0.0000 -19.4122 4.0931 11.0259 0.0162 0.8217 2.2584 1.0781 1.1426 -20.0636 0.5145 -4.5975 -12.7640 0.0000 0.0000 0.0000 8.1992 -6.5304 6.8053 -0.2052 -2.9168 8.0472 -1.6325 4.2157 -23.1664 -0.0833 -1.8613 5.1225 -7.9317 2.0348 3.8322 -1.3438 2.4547 1.4224 2.9328 1.2419 -0.9465 3.1815 1.2099 -18.7610 -0.1186 1.0660 25.4319 -0.3939 0.9006 11.4101 0.0000 0.0000 0.0000 -83.5324 0.4984 46.9032 14.9979 -24.1432 -3.2251 -0.0000 -0.0000 10.0561 12.2454 -20.9270 -4.4328 -7.1250 0.0000 -0.0000 -10.4003 8.8900 8.8186 0.0000 0.0000 0.0000 86.6031 -9.8008 34.7192 -19.6203 30.1822 -5.3391 0.0000 0.0000 0.2471 -9.1163 -32.1978 4.8871 7.1250 -0.0000 -0.0000 26.6300 -60.4926 -10.4930
-29.8219 16.9029 1.2404 45.1912 86.4037 45.4813 0.0000 0.0000 0.0000 -16.1073 4.0147 10.4643 0.0208 0.9303 2.5569 1.1138 0.8444 -20.2676 0.5274 -4.6540 -12.9243 0.0000 0.0000 0.0000 11.8460 -5.2801 6.4465 -0.2182 -3.0071 8.2985 -1.7043 3.3561 -23.8399 -0.1291 -2.3157 6.3790 -5.6617 1.9996 3.7121 -0.6475 2.4814 1.3180 2.3889 1.2493 -0.9323 3.3558 1.2058 -19.1418 -0.2904 1.0317 25.5501 -0.4901 0.8784 11.5318 -0.0000 -0.0000 0.0000 -83.2643 0.1611 47.4434 15.1155 -24.3068 -3.2733 -0.0000 -0.0000 10.1120 12.6816 -20.6674 -4.5409 -7.1250 0.0000 -0.0000 -10.1167 9.1030 8.5263 -0.0000 -0.0000 0.0000 86.3403 -10.0004 34.9102 -19.8158 30.4198 -5.4378 0.0000 0.0000 0.0346 -8.8641 -32.2197 4.7532 7.1250 -0.0000 -0.0000 26.9088 -60.4521 -10.5863
-29.7873 16.9000 1.2598 42.7684 86.3058 43.1408 0.0000 0.0000 0.0000 -15.9515 4.0751 10.5495 0.0200 0.9133 2.5102 1.1416 0.7208 -20.4678 0.5216 -4.6286 -12.8523 0.0000 0.0000 0.0000 12.1118 -4.8586 6.5786 -0.2192 -3.0141 8.3179 -1.7352 3.0912 -24.1160 -0.1429 -2.4359 6.7119 -5.6687 2.0465 3.8500 -0.6391 2.5306 1.2490 2.3922 1.2786 -1.0854 3.3080 1.1344 -19.2324 -0.0953 0.8851 25.6039 -0.4320 0.8339 11.5665 0.0000 -0.0000 0.0000 -82.9269 0.1569 47.9647 15.3312 -24.6054 -3.3626 -0.0000 -0.0000 10.4544 12.4959 -20.7605 -4.4917 -7.1250 0.0000 -0.0000 -10.2372 9.0298 8.6465 0.0000 -0.0000 0.0000 86.0640 -10.5162 35.2841 -20.0941 30.7555 -5.5794 0.0000 -0.0000 -0.3766 -8.8200 -31.9312 4.6916 7.1250 -0.0000 -0.0000 26.6941 -60.1877 -10.3248
-29.7549 16.8970 1.2758 48.0056 86.1554 48.5317 0.0000 0.0000 0.0000 -16.3317 3.9772 10.4760 0.0207 0.9298 2.5556 1.1715 0.3481 -20.5941 0.5102 -4.5785 -12.7103 0.0000 0.0000 0.0000 11.6887 -5.0794 6.5268 -0.2168 -2.9972 8.2710 -1.7635 3.0337 -24.3310 -0.1037 -2.0769 5.7182 -6.1059 1.9685 3.7684 -0.7012 2.4205 1.3063 2.5822 1.2211 -0.9857 3.2758 1.1239 -19.4055 0.0887 0.8154 25.6096 -0.3688 0.8219 11.6012 -0.0000 -0.0000 0.0000 -82.7347 -0.1746 48.2527 15.4637 -24.7881 -3.4180 -0.0000 -0.0000 10.8043 12.3466 -21.1712 -4.5200 -7.1250 0.0000 -0.0000 -10.3422 8.6356 8.8208 -0.0000 -0.0000 0.0000 85.7287 -10.7503 35.6848 -20.3270 31.0343 -5.6990 0.0000 -0.0000 -0.7210 -8.8251 -31.4028 4.6250 7.1250 -0.0000 -0.0000 26.2253 -59.7219 -9.8337
-29.7181 16.8935 1.2928 48.6297 86.0433 49.3801 0.0000 0.0000 0.0000 -16.4121 3.9604 10.4097 0.0199 0.9116 2.5056 1.2004 0.1576 -20.7778 0.5424 -4.7184 -13.1072 0.0000 0.0000 0.0000 11.5825 -5.1193 6.4124 -0.2150 -2.9854 8.2381 -1.7845 3.1830 -24.4507 -0.1175 -2.2099 6.0862 -6.2798 1.9307 3.6284 -0.7282 2.3755 1.3191 2.6588 1.1960 -0.8955 3.2880 1.0965 -19.7124 0.3482 0.6773 25.6543 -0.2949 0.7938 11.6769 -0.0000 0.0000 0.0000 -82.4169 -0.4469 48.7802 15.6581 -25.0548 -3.4999 -0.0000 -0.0000 10.7257 12.9765 -21.4476 -4.8163 -7.1250 0.0000 -0.0000 -9.9516 8.2904 8.5460 -0.0000 0.0000 0.0000 85.3611 -11.0029 36.3434 -20.6104 31.3707 -5.8458 0.0000 -0.0000 -1.0783 -8.7579 -31.4695 4.5980 7.1250 -0.0000 -0.0000 26.3516 -59.7656 -9.9130
-29.6797 16.8907 1.3112 46.3162 86.1563 47.3137 0.0000 0.0000 0.0000 -16.0860 4.0041 10.3006 0.0194 0.8990 2.4709 1.2221 0.1049 -20.9469 0.6303 -5.0801 -14.1372 0.0000 0.0000 0.0000 12.0140 -4.7122 6.4552 -0.2093 -2.9453 8.1266 -1.8157 3.1715 -24.6744 -0.1869 -2.7840 7.6780 -6.1360 1.8521 3.5064 -0.6706 2.2839 1.3151 2.6468 1.1477 -0.8201 3.0848 1.0327 -20.0680 0.7172 0.5224 25.6760 -0.1466 0.7508 11.7522 -0.0000 0.0000 0.0000 -82.0059 -0.5886 49.3696 15.9721 -25.4828 -3.6339 -0.0000 -0.0000 10.8225 14.2234 -21.2251 -5.2431 -7.1250 0.0000 -0.0000 -9.1543 8.3711 7.8273 -0.0000 0.0000 0.0000 84.8120 -11.3822 37.3969 -21.0496 31.8862 -6.0761 0.0000 -0.0000 -1.5305 -8.5108 -31.9969 4.5336 7.1250 -0.0000 -0.0000 27.0689 -60.1731 -10.4733
-29.6418 16.8878 1.3285 46.1111 86.2682 47.3530 0.0000 0.0000 0.0000 -15.8762 4.0811 10.1478 0.0191 0.8933 2.4552 1.2272 0.0771 -20.9812 0.7101 -5.3858 -15.0122 0.0000 0.0000 0.0000 12.1984 -4.8416 6.2778 -0.2106 -2.9543 8.1515 -1.8321 3.0033 -24.8243 -0.0987 -2.0260 5.5775 -6.0640 1.7405 3.3814 -0.6413 2.1475 1.3372 2.6479 1.0760 -0.7135 2.5455 0.9104 -20.6202 1.2435 0.3462 25.8642 0.1160 0.6900 11.9300 -0.0000 0.0000 0.0000 -81.6099 -0.7539 49.8519 16.3042 -25.9313 -3.7780 -0.0000 -0.0000 11.1729 14.8629 -20.8592 -5.3982 -7.1250 0.0000 -0.0000 -8.7334 8.6651 7.4068 -0.0000 0.0000 0.0000 84.1670 -11.7785 38.5567 -21.5023 32.4099 -6.3170 0.0000 -0.0000 -1.8861 -8.3731 -32.4376 4.5140 7.1250 -0.0000 -0.0000 27.6113 -60.5267 -10.9373
-29.6059 16.8821 1.3456 45.7692 86.2572 47.2383 0.0000 0.0000 0.0000 -15.9281 3.7944 10.2993 0.0152 0.7958 2.1872 1.2369 0.3950 -21.1756 0.6954 -5.3308 -14.8545 0.0000 0.0000 0.0000 12.2642 -4.8036 6.1177 -0.2164 -2.9944 8.2632 -1.8597 3.2167 -24.9741 -0.0981 -2.0196 5.5597 -6.0677 1.7086 3.5967 -0.6405 2.0798 1.1582 2.6441 1.0533 -1.0129 2.7542 0.9349 -20.8864 1.1747 0.3226 26.2319 0.0559 0.7001 12.1280 -0.0000 0.0000 0.0000 -80.8064 -0.6886 51.9099 16.7535 -26.5316 -3.9766 -0.0000 -0.0000 9.8743 15.2325 -20.4144 -5.4257 -7.1250 0.0000 -0.0000 -8.4793 9.0715 7.1168 -0.0000 0.0000 0.0000 83.5080 -12.4836 39.8415 -21.9912 32.9670 -6.5810 0.0000 -0.0000 -2.3549 -8.6505 -32.7036 4.6991 7.1250 -0.0000 -0.0000 27.5749 -60.8252 -11.1188
-29.5650 16.8755 1.3624 45.3704 86.2464 47.1357 0.0000 0.0000 0.0000 -15.9893 3.4664 10.4300 0.0114 0.6881 1.8910 1.2608 0.6251 -21.4624 0.6778 -5.2641 -14.6634 0.0000 0.0000 0.0000 12.3785 -4.7127 5.9256 -0.2218 -3.0314 8.3662 -1.8966 3.3923 -25.1964 -0.1003 -2.0427 5.6237 -6.1115 1.6342 3.3936 -0.5860 1.9945 1.1713 2.7353 1.0064 -0.8813 2.7679 0.9267 -21.2190 1.1821 0.2857 26.3999 0.0530 0.6884 12.2607 0.0000 0.0000 0.0000 -80.3824 -0.7728 52.6861 17.2828 -27.2291 -4.2159 -0.0000 -0.0000 9.2050 14.6259 -20.4915 -5.2198 -7.1250 0.0000 -0.0000 -8.8703 9.0641 7.4545 0.0000 0.0000 0.0000 82.6232 -12.9313 41.4297 -22.6223 33.6732 -6.9277 0.0000 -0.0000 -2.9149 -8.6714 -33.1951 4.7730 7.1250 -0.0000 -0.0000 28.0223 -61.2584 -11.6060
